<?xml version="1.0" encoding="utf-8"?>
<svg version="1.1" width="800" height="800" viewBox="0,0,800,800" xmlns="http://www.w3.org/2000/svg">
  <g transform="matrix(0.933168, 0, 0, 0.933168, 204.701114, 313.844823)" style="">
    <g data-paper-data="{&quot;isPaintingLayer&quot;:true}" fill-rule="nonzero" stroke="none" stroke-linecap="butt" stroke-linejoin="miter" stroke-miterlimit="10" stroke-dasharray="" stroke-dashoffset="0" style="mix-blend-mode: normal">
      <path d="M618.83483,94.44746c0,220.56719 -179.43281,400 -400,400c-220.56719,0 -400,-179.43281 -400,-400c0,-220.56719 179.43281,-400 400,-400c220.56719,0 400,179.43281 400,400zM85.50202,94.44746c0,44.73281 3.13281,86.46562 8.5,124.83281c38.36562,5.36719 80.1,8.5 124.83281,8.5c216.06719,0 366.66719,-70.26562 366.66719,-133.33281c0,-202.16719 -164.5,-366.66719 -366.66719,-366.66719c-63.06719,0 -133.33281,150.6 -133.33281,366.66719zM-147.83235,94.44746c0,45.96719 80.23438,95.63281 207.26719,119.23281c-4.73437,-37.5 -7.26719,-77.53281 -7.26719,-119.23281c0,-159.83281 37.26719,-294.63281 92.46719,-359.1c-166.7,34.4 -292.46719,182.33281 -292.46719,359.1zM144.63483,453.54746c-36.2,-42.3 -64.7,-114.73281 -80,-204.9c-90.16719,-15.26719 -162.6,-43.8 -204.9,-80c29.46719,142.73281 142.16719,255.43281 284.9,284.9zM577.93483,168.64746c-64.46719,55.2 -199.26719,92.46719 -359.1,92.46719c-41.7,0 -81.73281,-2.53438 -119.23281,-7.26719c23.6,127.03437 73.26563,207.26719 119.23281,207.26719c176.76719,0 324.7,-125.76719 359.1,-292.46719z" fill="#000000" stroke-width="1"/>
      <path d="M218.80313,461.1533c-45.96719,0 -95.64955,-80.28384 -119.24955,-207.31821c37.5,4.73281 77.53563,7.2591 119.23563,7.2591c159.83281,0 294.7211,-37.27282 359.18828,-92.47282c-34.4,166.7 -182.40718,292.53193 -359.17437,292.53193z" data-paper-data="{&quot;noHover&quot;:false,&quot;origItem&quot;:[&quot;Path&quot;,{&quot;applyMatrix&quot;:true,&quot;segments&quot;:[[[577.93483,168.64746],[-34.4,166.7],[-64.46719,55.2]],[[218.83483,261.11464],[159.83281,0],[-41.7,0]],[[99.60202,253.84746],[37.5,4.73281],[23.6,127.03437]],[[218.83483,461.11464],[-45.96719,0],[176.76719,0]]],&quot;closed&quot;:true,&quot;fillColor&quot;:[0,0,0,1]}]}" fill="#ffffff" stroke-width="0.5"/>
      <path d="M-140.30052,168.6121c42.3,36.2 114.80352,64.73281 204.97071,80c15.3,90.16719 43.8,162.67071 80,204.97071c-142.73281,-29.46719 -255.50352,-142.2379 -284.97071,-284.97071z" data-paper-data="{&quot;noHover&quot;:false,&quot;origItem&quot;:[&quot;Path&quot;,{&quot;applyMatrix&quot;:true,&quot;segments&quot;:[[[144.63483,453.54746],[-142.73281,-29.46719],[-36.2,-42.3]],[[64.63483,248.64746],[15.3,90.16719],[-90.16719,-15.26719]],[[-140.26517,168.64746],[42.3,36.2],[29.46719,142.73281]]],&quot;closed&quot;:true,&quot;fillColor&quot;:[0,0,0,1]}]}" fill="#ffffff" stroke-width="0.5"/>
      <path d="M218.81369,-272.26504c202.16719,0 366.73364,164.56645 366.73364,366.73364c0,63.06719 -150.66645,133.35698 -366.73364,133.35698c-44.73281,0 -86.4814,-3.14277 -124.84702,-8.50995c-5.36719,-38.36719 -8.50995,-80.11421 -8.50995,-124.84702c0,-216.06719 70.28979,-366.73364 133.35698,-366.73364z" data-paper-data="{&quot;noHover&quot;:false,&quot;origItem&quot;:[&quot;Path&quot;,{&quot;applyMatrix&quot;:true,&quot;segments&quot;:[[[85.50202,94.44746],[0,-216.06719],[0,44.73281]],[[94.00202,219.28027],[-5.36719,-38.36719],[38.36562,5.36719]],[[218.83483,227.78027],[-44.73281,0],[216.06719,0]],[[585.50202,94.44746],[0,63.06719],[0,-202.16719]],[[218.83483,-272.21973],[202.16719,0],[-63.06719,0]]],&quot;closed&quot;:true,&quot;fillColor&quot;:[0,0,0,1]}]}" fill="#ffffff" stroke-width="0.5"/>
      <path d="M144.66092,-264.6952c-55.2,64.46719 -92.47282,199.35547 -92.47282,359.18828c0,41.7 2.52472,81.73563 7.2591,119.23563c-127.03281,-23.6 -207.31821,-73.28236 -207.31821,-119.24955c0,-176.76719 125.83193,-324.77437 292.53193,-359.17437z" data-paper-data="{&quot;noHover&quot;:false,&quot;origItem&quot;:[&quot;Path&quot;,{&quot;applyMatrix&quot;:true,&quot;segments&quot;:[[[-147.83235,94.44746],[0,-176.76719],[0,45.96719]],[[59.43483,213.68027],[-127.03281,-23.6],[-4.73437,-37.5]],[[52.16765,94.44746],[0,41.7],[0,-159.83281]],[[144.63483,-264.65254],[-55.2,64.46719],[-166.7,34.4]]],&quot;closed&quot;:true,&quot;fillColor&quot;:[0,0,0,1]}]}" fill="#ffffff" stroke-width="0.5"/>
    </g>
  </g>
</svg>